<?xml version="1.0" encoding="UTF-8"?>
<svg id="Layer_1" data-name="Layer 1" xmlns="http://www.w3.org/2000/svg" version="1.1" viewBox="0 0 500 375">
  <defs>
    <style>
      .cls-1 {
        fill: #fff;
        stroke-width: 0px;
      }
    </style>
  </defs>
  <path class="cls-1" d="M5.26,7v362.65h490.74V7H5.26ZM457.57,52.01c6.85,0,12.41,5.56,12.41,12.41s-5.56,12.41-12.41,12.41-12.41-5.56-12.41-12.41,5.56-12.41,12.41-12.41ZM443.16,150.97h8.84v-18.71h5.55v18.71h8.84v11.01h-8.84v32.19h-5.55v-32.19h-8.84v-11.01ZM452.13,281.19c0,6.85-5.56,12.41-12.41,12.41s-12.41-5.56-12.41-12.41,5.56-12.41,12.41-12.41,12.41,5.56,12.41,12.41ZM450.42,236.76c0,6.85-5.56,12.41-12.41,12.41s-12.41-5.56-12.41-12.41,5.56-12.41,12.41-12.41,12.41,5.56,12.41,12.41ZM422.35,52.01c6.85,0,12.41,5.56,12.41,12.41s-5.56,12.41-12.41,12.41-12.41-5.56-12.41-12.41,5.56-12.41,12.41-12.41ZM385.12,52.01c6.85,0,12.41,5.56,12.41,12.41s-5.56,12.41-12.41,12.41-12.41-5.56-12.41-12.41,5.56-12.41,12.41-12.41ZM401.37,224.35c6.85,0,12.41,5.56,12.41,12.41s-5.56,12.41-12.41,12.41-12.41-5.56-12.41-12.41,5.56-12.41,12.41-12.41ZM33.27,34.22h325.83v46.43H33.27v-46.43ZM98.64,344.12h-55.04v-55.04h55.04v55.04ZM98.64,281.19h-55.04v-55.04h55.04v55.04ZM98.72,218.25h-55.04v-55.04h55.04v55.04ZM98.72,155.3h-55.04v-55.04h55.04v55.04ZM164.39,344.12h-55.04v-55.04h55.04v55.04ZM164.39,281.19h-55.04v-55.04h55.04v55.04ZM164.47,218.25h-55.04v-55.04h55.04v55.04ZM164.47,155.3h-55.04v-55.04h55.04v55.04ZM230.04,344.12h-55.04v-55.04h55.04v55.04ZM230.04,281.19h-55.04v-55.04h55.04v55.04ZM230.11,218.25h-55.04v-55.04h55.04v55.04ZM230.11,155.3h-55.04v-55.04h55.04v55.04ZM295.14,344.12h-55.04v-55.04h55.04v55.04ZM295.14,281.19h-55.04v-55.04h55.04v55.04ZM295.22,218.25h-55.04v-55.04h55.04v55.04ZM295.22,155.3h-55.04v-55.04h55.04v55.04ZM322.08,164.69c0-15.16,12.29-27.45,27.45-27.45s27.45,12.29,27.45,27.45-12.29,27.45-27.45,27.45-27.45-12.29-27.45-27.45ZM361.31,224.35c6.85,0,12.41,5.56,12.41,12.41s-5.56,12.41-12.41,12.41-12.41-5.56-12.41-12.41,5.56-12.41,12.41-12.41ZM350.61,281.19c0-6.85,5.56-12.41,12.41-12.41s12.41,5.56,12.41,12.41-5.56,12.41-12.41,12.41-12.41-5.56-12.41-12.41ZM411.95,345.54h-51.77v-22.85h51.77v22.85ZM403.08,293.6c-6.85,0-12.41-5.56-12.41-12.41s5.56-12.41,12.41-12.41,12.41,5.56,12.41,12.41-5.56,12.41-12.41,12.41ZM409.94,194.6v-32.19h-8.84v-11.01h8.84v-18.71h5.55v18.71h8.84v11.01h-8.84v32.19h-5.55ZM470.79,345.54h-51.77v-22.85h51.77v22.85Z"/>
</svg>